<svg xmlns="http://www.w3.org/2000/svg" viewBox="0 0 460 600" width="460" height="600" font-family="Helvetica Neue, Arial, sans-serif">
  <defs>
    <marker id="arrow-lmhead" viewBox="0 0 10 10" refX="8" refY="5" markerWidth="7" markerHeight="7" orient="auto-start-reverse">
      <path d="M0,0 L10,5 L0,10 z" fill="#E05315"/>
    </marker>
  </defs>
  <g font-size="16" text-anchor="middle">
    <!-- boxes -->
    <g fill="#F2EEFC" stroke="#5528CC" stroke-width="1.5">
      <rect x="40" y="10" width="380" height="55" rx="6"/>
      <rect x="40" y="95" width="380" height="55" rx="6"/>
      <rect x="40" y="180" width="380" height="55" rx="6"/>
      <rect x="40" y="265" width="380" height="55" rx="6"/>
      <rect x="40" y="350" width="380" height="55" rx="6"/>
      <rect x="40" y="435" width="380" height="55" rx="6"/>
      <rect x="40" y="520" width="380" height="55" rx="6"/>
    </g>
    <g fill="#222222">
      <text x="230" y="43">Final Hidden Vector  x&#8348;</text>
      <text x="230" y="128">RMSNorm</text>
      <text x="230" y="213">Linear LM Head  (W_vocab)</text>
      <text x="230" y="298">Raw Logits  z&#8348;</text>
      <text x="230" y="383">Temperature Scaling  (z&#8348; / T)</text>
      <text x="230" y="468">Softmax Normalization</text>
      <text x="230" y="553">Next-Token Probabilities  P(x&#8348;&#8330;&#8321;)</text>
    </g>
  </g>
  <g stroke="#E05315" stroke-width="2" marker-end="url(#arrow-lmhead)">
    <line x1="230" y1="65" x2="230" y2="93"/>
    <line x1="230" y1="150" x2="230" y2="178"/>
    <line x1="230" y1="235" x2="230" y2="263"/>
    <line x1="230" y1="320" x2="230" y2="348"/>
    <line x1="230" y1="405" x2="230" y2="433"/>
    <line x1="230" y1="490" x2="230" y2="518"/>
  </g>
</svg>
