<svg xmlns="http://www.w3.org/2000/svg" viewBox="0 0 480 330" width="480" height="330" font-family="Helvetica Neue, Arial, sans-serif">
  <defs>
    <marker id="g1" markerWidth="9" markerHeight="9" refX="7" refY="3"
            orient="auto"><path d="M0,0 L7,3 L0,6 z" fill="#222"/></marker>
  </defs>
  <text x="240" y="16" text-anchor="middle" font-size="14">x   [d_model]</text>
  <line x1="240" y1="24" x2="240" y2="44" stroke="#222" stroke-width="2"/>
  <circle cx="240" cy="44" r="5" fill="#222"/>
  <path d="M240,44 L140,44 L140,64" fill="none" stroke="#222" stroke-width="2" marker-end="url(#g1)"/>
  <path d="M240,44 L340,44 L340,64" fill="none" stroke="#222" stroke-width="2" marker-end="url(#g1)"/>

  <rect x="85" y="72" width="110" height="42" fill="#fff" stroke="#222" stroke-width="2"/>
  <text x="140" y="99" text-anchor="middle" font-size="15">Linear W₁</text>
  <text x="52" y="66" font-size="13" fill="#E05315">gate</text>
  <rect x="285" y="72" width="110" height="42" fill="#fff" stroke="#222" stroke-width="2"/>
  <text x="340" y="99" text-anchor="middle" font-size="15">Linear W₂</text>
  <text x="400" y="66" font-size="13" fill="#5528CC">up</text>

  <line x1="140" y1="114" x2="140" y2="134" stroke="#222" stroke-width="2" marker-end="url(#g1)"/>
  <rect x="85" y="142" width="110" height="42" fill="#fff" stroke="#E05315" stroke-width="2"/>
  <text x="140" y="169" text-anchor="middle" font-size="15">SiLU</text>

  <path d="M140,184 L140,222 L216,222" fill="none" stroke="#222" stroke-width="2" marker-end="url(#g1)"/>
  <path d="M340,114 L340,222 L264,222" fill="none" stroke="#222" stroke-width="2" marker-end="url(#g1)"/>
  <circle cx="240" cy="222" r="20" fill="#fff" stroke="#222" stroke-width="2"/>
  <text x="240" y="229" text-anchor="middle" font-size="18">⊗</text>
  <text x="172" y="208" font-size="12" fill="#555">[d_ff]</text>
  <text x="276" y="208" font-size="12" fill="#555">[d_ff]</text>

  <line x1="240" y1="242" x2="240" y2="262" stroke="#222" stroke-width="2" marker-end="url(#g1)"/>
  <rect x="175" y="268" width="130" height="42" fill="#fff" stroke="#222" stroke-width="2"/>
  <text x="240" y="295" text-anchor="middle" font-size="15">Linear W₃</text>
  <text x="314" y="295" font-size="13" fill="#5528CC">down</text>
  <text x="240" y="326" text-anchor="middle" font-size="14">Δ   [d_model]</text>
</svg>
